<svg width="102" height="44" viewBox="0 0 102 44" fill="none" xmlns="http://www.w3.org/2000/svg">
<path d="M23.2 0.599998V23H18.944L7.776 9.4V23H2.656V0.599998H6.944L18.08 14.2V0.599998H23.2ZM43.2518 18.2H32.8518L30.8678 23H25.5557L35.5398 0.599998H40.6598L50.6758 23H45.2358L43.2518 18.2ZM41.6198 14.264L38.0678 5.688L34.5158 14.264H41.6198ZM73.5438 0.599998V23H69.2878L58.1198 9.4V23H52.9998V0.599998H57.2878L68.4237 14.2V0.599998H73.5438ZM89.6915 23.384C87.3662 23.384 85.2648 22.8827 83.3875 21.88C81.5315 20.8773 80.0702 19.5013 79.0035 17.752C77.9582 15.9813 77.4355 13.9973 77.4355 11.8C77.4355 9.60267 77.9582 7.62933 79.0035 5.88C80.0702 4.10933 81.5315 2.72267 83.3875 1.72C85.2648 0.717333 87.3662 0.216 89.6915 0.216C92.0168 0.216 94.1075 0.717333 95.9635 1.72C97.8195 2.72267 99.2808 4.10933 100.348 5.88C101.414 7.62933 101.948 9.60267 101.948 11.8C101.948 13.9973 101.414 15.9813 100.348 17.752C99.2808 19.5013 97.8195 20.8773 95.9635 21.88C94.1075 22.8827 92.0168 23.384 89.6915 23.384ZM89.6915 18.968C91.0142 18.968 92.2088 18.6693 93.2755 18.072C94.3422 17.4533 95.1742 16.6 95.7715 15.512C96.3902 14.424 96.6995 13.1867 96.6995 11.8C96.6995 10.4133 96.3902 9.176 95.7715 8.088C95.1742 7 94.3422 6.15733 93.2755 5.56C92.2088 4.94133 91.0142 4.632 89.6915 4.632C88.3688 4.632 87.1742 4.94133 86.1075 5.56C85.0408 6.15733 84.1982 7 83.5795 8.088C82.9822 9.176 82.6835 10.4133 82.6835 11.8C82.6835 13.1867 82.9822 14.424 83.5795 15.512C84.1982 16.6 85.0408 17.4533 86.1075 18.072C87.1742 18.6693 88.3688 18.968 89.6915 18.968ZM3.7873 43.1452C3.11777 43.1452 2.4684 43.0565 1.8392 42.879C1.21807 42.6935 0.717933 42.4555 0.3388 42.1651L1.0043 40.6889C1.3673 40.9551 1.79887 41.1689 2.299 41.3302C2.79913 41.4915 3.29927 41.5722 3.7994 41.5722C4.356 41.5722 4.7674 41.4915 5.0336 41.3302C5.2998 41.1608 5.4329 40.939 5.4329 40.6647C5.4329 40.463 5.35223 40.2977 5.1909 40.1686C5.03763 40.0315 4.83597 39.9226 4.5859 39.8419C4.3439 39.7612 4.01317 39.6725 3.5937 39.5757C2.94837 39.4224 2.42 39.2692 2.0086 39.1159C1.5972 38.9626 1.24227 38.7166 0.9438 38.3778C0.6534 38.039 0.5082 37.5873 0.5082 37.0226C0.5082 36.5305 0.6413 36.0869 0.9075 35.6916C1.1737 35.2883 1.573 34.9696 2.1054 34.7357C2.64587 34.5018 3.3033 34.3848 4.0777 34.3848C4.61817 34.3848 5.14653 34.4493 5.6628 34.5784C6.17907 34.7075 6.6308 34.893 7.018 35.135L6.413 36.6233C5.63053 36.1796 4.84807 35.9578 4.0656 35.9578C3.51707 35.9578 3.1097 36.0465 2.8435 36.224C2.58537 36.4015 2.4563 36.6354 2.4563 36.9258C2.4563 37.2162 2.60553 37.434 2.904 37.5792C3.21053 37.7163 3.67437 37.8535 4.2955 37.9906C4.94083 38.1439 5.4692 38.2971 5.8806 38.4504C6.292 38.6037 6.6429 38.8457 6.9333 39.1764C7.23177 39.5071 7.381 39.9548 7.381 40.5195C7.381 41.0035 7.24387 41.4472 6.9696 41.8505C6.7034 42.2458 6.30007 42.5604 5.7596 42.7943C5.21913 43.0282 4.5617 43.1452 3.7873 43.1452ZM20.3392 36.1272H17.6288V34.53H25.0098V36.1272H22.2994V43H20.3392V36.1272ZM39.6683 43.1452C38.4583 43.1452 37.5145 42.8104 36.8369 42.1409C36.1674 41.4714 35.8326 40.5155 35.8326 39.2732V34.53H37.7928V39.2006C37.7928 40.7171 38.422 41.4754 39.6804 41.4754C40.2935 41.4754 40.7614 41.2939 41.084 40.9309C41.4067 40.5598 41.568 39.9831 41.568 39.2006V34.53H43.504V39.2732C43.504 40.5155 43.1652 41.4714 42.4876 42.1409C41.8181 42.8104 40.8783 43.1452 39.6683 43.1452ZM55.4236 34.53H59.2714C60.191 34.53 61.0017 34.7075 61.7035 35.0624C62.4133 35.4093 62.9619 35.9013 63.3491 36.5386C63.7443 37.1759 63.942 37.918 63.942 38.765C63.942 39.612 63.7443 40.3541 63.3491 40.9914C62.9619 41.6287 62.4133 42.1248 61.7035 42.4797C61.0017 42.8266 60.191 43 59.2714 43H55.4236V34.53ZM59.1746 41.3907C60.0216 41.3907 60.6951 41.1568 61.1953 40.6889C61.7035 40.213 61.9576 39.5717 61.9576 38.765C61.9576 37.9583 61.7035 37.3211 61.1953 36.8532C60.6951 36.3773 60.0216 36.1393 59.1746 36.1393H57.3838V41.3907H59.1746ZM75.4028 34.53H77.363V43H75.4028V34.53ZM93.4575 43.1452C92.5782 43.1452 91.7836 42.9556 91.0738 42.5765C90.372 42.1974 89.8194 41.6771 89.4161 41.0156C89.0208 40.3461 88.8232 39.5959 88.8232 38.765C88.8232 37.9341 89.0208 37.188 89.4161 36.5265C89.8194 35.857 90.372 35.3326 91.0738 34.9535C91.7836 34.5744 92.5782 34.3848 93.4575 34.3848C94.3367 34.3848 95.1273 34.5744 95.8291 34.9535C96.5309 35.3326 97.0834 35.857 97.4868 36.5265C97.8901 37.188 98.0918 37.9341 98.0918 38.765C98.0918 39.5959 97.8901 40.3461 97.4868 41.0156C97.0834 41.6771 96.5309 42.1974 95.8291 42.5765C95.1273 42.9556 94.3367 43.1452 93.4575 43.1452ZM93.4575 41.4754C93.9576 41.4754 94.4093 41.3625 94.8127 41.1366C95.216 40.9027 95.5306 40.58 95.7565 40.1686C95.9904 39.7572 96.1074 39.2893 96.1074 38.765C96.1074 38.2407 95.9904 37.7728 95.7565 37.3614C95.5306 36.95 95.216 36.6314 94.8127 36.4055C94.4093 36.1716 93.9576 36.0546 93.4575 36.0546C92.9573 36.0546 92.5056 36.1716 92.1023 36.4055C91.6989 36.6314 91.3803 36.95 91.1464 37.3614C90.9205 37.7728 90.8076 38.2407 90.8076 38.765C90.8076 39.2893 90.9205 39.7572 91.1464 40.1686C91.3803 40.58 91.6989 40.9027 92.1023 41.1366C92.5056 41.3625 92.9573 41.4754 93.4575 41.4754Z" fill="black"/>
</svg>
